<?xml version="1.0" standalone="no"?>
<!DOCTYPE svg PUBLIC "-//W3C//DTD SVG 20010904//EN"
 "http://www.w3.org/TR/2001/REC-SVG-20010904/DTD/svg10.dtd">
<svg version="1.0" xmlns="http://www.w3.org/2000/svg"
 width="1280.000000pt" height="847.000000pt" viewBox="0 0 1280.000000 847.000000"
 preserveAspectRatio="xMidYMid meet">

<g transform="translate(0.000000,847.000000) scale(0.100000,-0.100000)"
fill="#000000" stroke="none">
<path d="M5275 5975 c-43 -20 -435 -194 -463 -205 -12 -6 -25 -16 -27 -23 -3
-7 44 -123 104 -257 60 -135 159 -355 219 -490 60 -134 114 -246 120 -248 6
-2 42 11 79 28 37 18 133 61 213 96 80 36 166 75 193 86 28 13 47 28 47 38 0
9 -18 53 -40 98 -36 76 -41 81 -62 73 -13 -5 -90 -39 -171 -75 l-148 -65 -18
42 c-10 23 -31 69 -45 101 -15 33 -25 65 -22 71 2 6 26 20 53 30 91 35 193 87
193 99 0 11 -68 176 -76 185 -2 2 -63 -22 -134 -54 -75 -33 -135 -54 -139 -49
-12 13 -83 185 -79 189 9 9 307 145 317 145 6 0 11 6 11 14 0 19 -78 186 -87
185 -5 0 -21 -7 -38 -14z m0 -123 c-6 -5 -84 -42 -175 -82 -91 -40 -167 -74
-169 -76 -6 -6 164 -374 173 -374 5 0 69 27 143 61 74 33 136 59 139 56 9 -8
-22 -25 -148 -82 -71 -32 -128 -60 -128 -64 0 -14 174 -391 181 -391 4 0 81
33 171 74 90 41 165 72 167 70 7 -6 4 -8 -174 -87 -133 -60 -173 -74 -182 -64
-21 21 -364 797 -357 808 3 6 25 19 48 29 231 103 293 129 306 130 8 0 10 -3
5 -8z"/>
<path d="M7764 5777 c-44 -23 -87 -46 -96 -52 -18 -11 -98 -167 -98 -190 0
-20 8 -19 85 10 36 13 65 22 65 20 0 -2 -79 -163 -175 -357 -96 -193 -175
-357 -175 -363 0 -12 162 -95 186 -95 16 0 484 936 484 969 0 13 -26 30 -89
60 -49 22 -93 41 -98 41 -4 0 -44 -20 -89 -43z m141 -87 c5 -15 -50 -134 -191
-418 -108 -218 -198 -392 -201 -386 -2 7 82 184 187 394 104 210 190 389 190
396 0 20 -20 17 -95 -11 -36 -13 -65 -21 -65 -16 0 7 134 59 157 60 6 1 15 -8
18 -19z"/>
<path d="M5939 4763 c-37 -23 -61 -68 -61 -113 1 -44 12 -68 56 -124 33 -43
35 -64 10 -144 -7 -26 -12 -48 -10 -50 2 -1 23 25 46 60 69 102 134 186 148
192 58 24 117 -146 78 -222 -18 -35 -50 -53 -169 -98 -87 -32 -137 -73 -137
-112 0 -14 14 -54 31 -89 l31 -64 -27 -60 c-28 -62 -66 -131 -132 -239 -60
-97 -108 -196 -138 -285 -79 -232 0 -480 211 -661 61 -52 83 -54 34 -2 -87 91
-102 183 -56 341 48 165 54 242 31 432 -3 22 6 -7 20 -65 14 -57 34 -131 44
-165 17 -49 20 -86 19 -205 -2 -183 11 -228 92 -310 73 -75 123 -96 254 -110
92 -10 112 -10 153 5 47 16 177 82 138 70 -213 -66 -357 -38 -481 96 -75 82
-134 214 -134 298 l1 36 31 -58 c72 -133 200 -250 322 -296 70 -26 182 -28
250 -5 47 16 75 40 150 127 41 47 88 74 154 88 25 6 8 7 -53 4 -70 -3 -103
-10 -150 -30 -52 -23 -69 -26 -125 -22 -112 9 -276 87 -411 196 -147 118 -196
191 -206 301 -13 138 47 213 284 358 154 94 222 153 249 217 30 73 10 210 -45
303 -63 106 -217 303 -286 365 -62 55 -162 74 -216 40z m-62 -1185 c-3 -7 -5
-2 -5 12 0 14 2 19 5 13 2 -7 2 -19 0 -25z"/>
<path d="M6585 3833 c-65 -48 -97 -57 -215 -57 -107 -1 -119 -3 -180 -32 -80
-38 -125 -83 -146 -146 -30 -92 -3 -166 103 -274 168 -172 405 -275 562 -244
67 14 145 64 196 126 53 64 116 98 195 104 l65 6 -60 19 c-113 35 -243 25
-454 -37 -91 -27 -113 -30 -177 -24 -150 14 -326 74 -337 115 -11 44 1 130 24
163 53 79 117 117 244 147 105 25 143 47 179 102 31 46 31 55 1 32z"/>
<path d="M3316 3737 c-76 -28 -147 -92 -183 -165 -23 -47 -28 -73 -31 -153 -8
-194 67 -311 227 -355 52 -15 69 -15 116 -5 103 23 202 107 302 256 64 94 96
120 148 120 57 0 85 -27 92 -87 9 -77 -46 -147 -133 -169 -26 -7 -44 -17 -44
-25 0 -8 23 -55 52 -105 51 -90 52 -91 85 -86 134 22 251 168 276 342 18 131
-27 239 -129 311 -109 78 -240 96 -337 48 -64 -33 -170 -140 -257 -260 -56
-76 -71 -90 -104 -99 -34 -8 -40 -7 -57 14 -12 15 -19 39 -19 68 0 73 35 121
118 162 23 12 42 25 42 30 0 13 -61 154 -72 169 -14 16 -22 15 -92 -11z m29
-120 c-11 -7 -41 -32 -66 -57 -49 -47 -69 -103 -69 -189 0 -45 42 -134 74
-154 43 -28 102 -39 149 -27 52 14 81 41 168 155 159 210 238 255 370 210 55
-20 79 -39 114 -95 67 -105 14 -289 -102 -357 -24 -14 -46 -23 -49 -20 -3 3 8
13 25 21 53 28 107 94 126 153 45 144 -13 260 -149 294 -102 25 -172 -22 -334
-226 -120 -151 -187 -183 -291 -137 -78 35 -111 95 -111 201 0 56 5 79 28 122
27 51 99 120 125 118 7 0 3 -6 -8 -12z"/>
<path d="M8527 3663 c-2 -5 5 -54 16 -109 l21 -102 60 -6 c32 -3 84 -6 115 -6
31 0 61 -4 67 -8 8 -5 55 -197 54 -224 0 -3 -48 -32 -107 -63 -60 -32 -109
-58 -110 -59 -2 -2 36 -184 42 -204 4 -9 159 65 502 239 274 138 502 255 507
260 10 9 -27 206 -41 220 -4 4 -255 21 -558 38 -628 36 -563 33 -568 24z m322
-119 c8 -7 -144 -2 -174 6 -17 5 14 6 70 3 55 -3 102 -7 104 -9z m429 -28
c162 -13 298 -28 304 -34 10 -10 -8 -22 -222 -137 -69 -37 -129 -71 -135 -75
-5 -4 -57 -32 -115 -62 -58 -31 -154 -83 -215 -117 -60 -34 -113 -60 -117 -59
-5 2 40 30 99 62 60 33 109 60 110 61 2 1 -54 273 -72 352 -3 12 -15 23 -28
26 -64 12 132 4 391 -17z"/>
<path d="M8930 3516 c0 -17 70 -339 75 -344 4 -5 87 37 240 123 72 39 174 96
229 126 54 29 94 54 90 56 -8 2 -604 53 -625 53 -5 0 -9 -6 -9 -14z m295 -104
l40 -8 -101 -51 -102 -52 -11 44 c-19 76 -20 75 62 74 39 0 90 -3 112 -7z"/>
<path d="M3330 2194 c0 -72 3 -95 13 -91 8 3 11 23 9 64 -2 36 1 64 7 68 6 3
11 1 11 -6 0 -25 53 -129 66 -129 11 0 14 21 14 95 0 57 -4 95 -10 95 -6 0
-10 -31 -11 -72 l-1 -73 -34 73 c-49 103 -64 97 -64 -24z"/>
<path d="M3582 2198 l3 -93 48 0 c57 0 63 19 7 23 -35 3 -40 6 -40 28 0 21 5
24 35 24 19 0 35 5 35 10 0 6 -16 10 -35 10 -33 0 -35 2 -35 35 0 35 0 35 45
35 25 0 45 5 45 10 0 6 -25 10 -55 10 l-56 0 3 -92z"/>
<path d="M3800 2285 c0 -4 9 -48 21 -97 13 -55 25 -88 32 -85 7 2 21 35 32 72
12 38 23 65 26 60 3 -6 14 -38 24 -73 10 -34 23 -61 29 -59 10 3 58 178 51
185 -11 11 -23 -14 -35 -67 -7 -34 -16 -59 -20 -56 -3 2 -15 31 -25 65 -10 33
-23 59 -28 57 -6 -2 -19 -34 -31 -73 l-21 -69 -15 69 c-9 39 -22 72 -28 74 -7
2 -12 0 -12 -3z"/>
<path d="M4310 2194 l0 -95 48 3 c56 4 63 22 10 26 l-38 3 0 80 c0 46 -4 79
-10 79 -6 0 -10 -39 -10 -96z"/>
<path d="M4565 2278 c-29 -83 -51 -169 -44 -174 5 -3 13 5 18 19 8 20 15 23
44 19 25 -3 37 -10 40 -24 3 -11 10 -17 15 -14 6 3 -2 42 -17 93 -26 83 -45
111 -56 81z m34 -95 c1 -17 -5 -23 -19 -23 -23 0 -25 13 -8 61 12 34 12 34 19
9 4 -14 7 -35 8 -47z"/>
<path d="M4762 2198 c3 -106 20 -122 28 -26 l5 63 32 -68 c20 -42 38 -67 45
-65 16 6 24 188 9 188 -6 0 -11 -33 -13 -72 l-3 -73 -35 72 c-24 49 -41 72
-53 73 -16 0 -17 -9 -15 -92z"/>
<path d="M5027 2272 c-25 -28 -23 -126 3 -152 41 -41 97 -19 107 43 5 35 4 37
-21 37 -14 0 -26 -4 -26 -10 0 -5 5 -10 10 -10 6 0 10 -11 10 -25 0 -33 -46
-47 -67 -20 -16 23 -17 107 -1 123 19 19 54 14 71 -10 15 -22 16 -22 16 -2 1
11 -4 25 -11 32 -18 18 -73 14 -91 -6z"/>
<path d="M5260 2211 c0 -71 2 -82 22 -95 31 -22 64 -20 88 4 16 16 20 33 20
96 0 56 -3 75 -12 72 -9 -3 -13 -29 -14 -79 -1 -70 -3 -75 -27 -83 -44 -16
-57 5 -57 90 0 43 -4 74 -10 74 -6 0 -10 -33 -10 -79z"/>
<path d="M5553 2278 c-12 -20 -52 -162 -46 -168 2 -3 11 4 19 15 12 16 31 21
73 16 5 -1 11 -11 14 -23 4 -12 9 -19 12 -16 7 7 -18 114 -36 161 -12 29 -23
34 -36 15z m34 -81 c5 -35 4 -37 -21 -37 -30 0 -30 0 -14 52 13 44 26 39 35
-15z"/>
<path d="M5766 2274 c-11 -11 -16 -35 -16 -79 0 -58 3 -66 25 -81 36 -23 85
-9 98 29 5 15 6 34 3 42 -6 17 -56 21 -56 5 0 -5 7 -10 15 -10 9 0 15 -9 15
-25 0 -29 -41 -45 -65 -25 -18 15 -21 110 -3 128 19 19 54 14 71 -10 l16 -23
0 22 c1 40 -72 59 -103 27z"/>
<path d="M6000 2194 l0 -95 50 3 c60 4 67 22 10 26 -35 3 -40 6 -40 28 0 20 5
24 29 24 42 0 48 18 9 22 -29 3 -33 7 -36 36 -3 31 -2 32 37 32 23 0 41 5 41
10 0 6 -22 10 -50 10 l-50 0 0 -96z"/>
<path d="M6228 2265 c-15 -34 -2 -56 41 -71 49 -16 64 -46 33 -63 -24 -13 -62
-3 -62 15 0 8 -4 14 -10 14 -16 0 -12 -27 7 -45 12 -12 26 -15 51 -11 41 6 53
21 50 56 -3 23 -11 29 -78 60 -8 4 -15 16 -15 26 0 26 45 32 62 8 16 -22 31
-9 17 14 -6 10 -27 18 -47 20 -32 3 -39 -1 -49 -23z"/>
<path d="M6770 2195 c0 -57 4 -95 10 -95 6 0 10 30 10 71 0 41 4 68 9 64 5 -3
19 -31 31 -63 21 -56 36 -75 52 -66 11 7 10 184 -2 184 -5 0 -10 -33 -12 -72
l-3 -73 -34 73 c-47 101 -61 96 -61 -23z"/>
<path d="M7020 2194 l0 -95 50 3 c60 4 67 22 10 26 -35 3 -40 6 -40 28 0 20 5
24 30 24 17 0 30 5 30 10 0 6 -13 10 -30 10 -28 0 -30 3 -30 35 0 34 1 35 40
35 22 0 40 5 40 10 0 6 -22 10 -50 10 l-50 0 0 -96z"/>
<path d="M7240 2274 c0 -9 6 -39 14 -67 8 -29 17 -65 21 -81 8 -40 24 -22 51
57 l21 62 22 -73 c12 -39 26 -72 31 -72 11 0 36 79 45 144 11 72 -11 55 -26
-19 -7 -36 -15 -65 -19 -65 -3 0 -15 28 -25 63 -11 34 -24 61 -30 60 -5 -1
-19 -30 -31 -65 -23 -67 -25 -66 -44 20 -11 49 -30 72 -30 36z"/>
<path d="M7745 2279 c-10 -26 -1 -174 10 -171 6 1 10 18 10 37 0 34 1 35 38
35 37 0 37 0 37 -40 0 -22 5 -40 10 -40 6 0 10 35 10 85 0 47 0 88 1 92 0 4
-4 9 -10 11 -5 2 -11 -16 -13 -40 -3 -40 -5 -43 -35 -46 -31 -3 -33 -1 -33 30
0 41 -16 71 -25 47z"/>
<path d="M8008 2279 c-15 -8 -18 -24 -18 -84 0 -65 3 -76 21 -86 27 -14 85 -3
93 17 3 9 6 44 6 79 0 53 -3 66 -19 75 -25 13 -61 12 -83 -1z m76 -25 c3 -9 6
-38 6 -64 0 -54 -18 -74 -58 -63 -20 5 -22 12 -22 67 0 35 3 66 7 69 13 13 61
7 67 -9z"/>
<path d="M8238 2278 c-2 -7 -5 -44 -6 -83 -3 -94 17 -128 30 -50 6 34 36 30
59 -9 22 -37 48 -41 28 -4 -8 15 -8 32 1 64 11 38 10 47 -4 69 -13 20 -25 25
-60 25 -26 0 -46 -5 -48 -12z m90 -50 c3 -37 3 -38 -32 -38 -35 0 -36 1 -36
41 0 39 1 40 33 37 29 -3 32 -6 35 -40z"/>
<path d="M8480 2195 c0 -57 4 -95 10 -95 6 0 10 38 10 95 0 57 -4 95 -10 95
-6 0 -10 -38 -10 -95z"/>
<path d="M8625 2280 c-4 -6 10 -10 34 -10 23 0 41 -4 41 -9 0 -5 -18 -40 -40
-79 -22 -38 -40 -72 -40 -76 0 -3 25 -6 55 -6 42 0 55 3 55 15 0 10 -11 15
-35 15 -19 0 -35 2 -35 4 0 2 16 32 35 66 47 83 46 90 -14 90 -28 0 -53 -4
-56 -10z"/>
<path d="M8869 2273 c-9 -10 -14 -41 -14 -80 0 -52 4 -67 19 -79 27 -19 70
-18 89 4 23 25 24 134 1 156 -20 21 -78 20 -95 -1z m85 -19 c3 -9 6 -38 6 -64
0 -39 -4 -52 -20 -60 -12 -6 -30 -8 -40 -5 -17 5 -20 16 -20 69 0 34 3 66 7
69 13 13 61 7 67 -9z"/>
<path d="M9102 2198 c3 -106 20 -122 28 -27 l5 62 33 -67 c18 -37 39 -65 45
-63 15 5 23 187 8 187 -6 0 -11 -33 -13 -72 l-3 -73 -35 72 c-24 49 -41 72
-53 73 -16 0 -17 -9 -15 -92z"/>
<path d="M9365 2274 c-28 -28 -14 -57 38 -82 50 -24 59 -45 28 -62 -26 -13
-27 -13 -51 12 -22 24 -35 19 -25 -11 7 -24 52 -35 89 -21 23 8 27 15 24 42
-2 28 -10 36 -45 53 -32 14 -43 25 -43 42 0 18 6 23 25 23 14 0 28 -7 31 -15
4 -8 12 -15 20 -15 15 0 8 30 -10 42 -19 13 -64 9 -81 -8z"/>
<path d="M6457 2133 c-8 -13 5 -63 14 -57 12 7 12 51 0 59 -5 3 -12 2 -14 -2z"/>
</g>
</svg>
